External Loads File
version=1
nRows=85
nColumns=13
Range=5.000000e-03-10 seconds
endheader
time 	forceRightX 	forceRightY 	forceRightZ 	pointRightX 	pointRightY 	pointRightZ 	forceLeftX 	forceLeftY 	forceLeftZ 	pointLeftX 	pointLeftY 	pointLeftZ 		
0.005000 47.152203 228.850374 -0.000000 0.156665 0.231950 -0.124545 -105.977340 126.829580 -0.000000 0.438153 0.415080 -0.367787
0.010000 47.974265 228.699623 -0.000000 0.156682 0.231951 -0.124516 -105.706376 126.586494 -0.000000 0.438165 0.415057 -0.367790
0.015000 48.768163 228.560847 -0.000000 0.156694 0.231981 -0.124504 -105.448742 126.408491 -0.000000 0.438169 0.415037 -0.367785
0.020000 49.482740 228.424596 -0.000000 0.156712 0.231997 -0.124493 -105.240600 126.315458 -0.000000 0.438253 0.415018 -0.367709
0.025000 49.938426 228.316457 -0.000000 0.156662 0.232233 -0.124397 -105.163592 126.248809 -0.000000 0.438144 0.415361 -0.367782
0.030000 50.377067 228.178685 -0.000000 0.156639 0.232265 -0.124405 -105.053685 126.323085 -0.000000 0.438120 0.415329 -0.367777
0.035000 50.659591 228.043463 -0.000000 0.156594 0.232286 -0.124427 -104.966835 126.455879 -0.000000 0.438107 0.415353 -0.367795
0.040000 50.814005 227.906480 -0.000000 0.156568 0.232302 -0.124455 -104.889034 126.624286 -0.000000 0.438082 0.415371 -0.367799
0.045000 50.858432 227.762594 -0.000000 0.156532 0.232292 -0.124480 -104.830113 126.795436 -0.000000 0.438062 0.415379 -0.367802
0.050000 50.831568 227.607764 -0.000000 0.156539 0.232304 -0.124496 -104.789857 126.953896 -0.000000 0.438040 0.415362 -0.367818
0.055000 50.739925 227.456602 -0.000000 0.156542 0.232302 -0.124467 -104.777063 127.080765 -0.000000 0.438025 0.415375 -0.367815
0.060000 50.645754 227.321700 -0.000000 0.156560 0.232296 -0.124439 -104.766236 127.186299 -0.000000 0.438013 0.415381 -0.367819
0.065000 50.626929 227.222385 -0.000000 0.156593 0.232312 -0.124388 -104.729475 127.279642 -0.000000 0.438018 0.415362 -0.367813
0.070000 50.698417 227.191505 -0.000000 0.156603 0.232318 -0.124351 -104.680789 127.331872 -0.000000 0.438038 0.415354 -0.367804
0.075000 50.873436 227.237971 -0.000000 0.156600 0.232329 -0.124326 -104.629505 127.323968 -0.000000 0.438049 0.415355 -0.367807
0.080000 51.132032 227.338693 -0.000000 0.156594 0.232343 -0.124321 -104.584438 127.253336 -0.000000 0.438056 0.415360 -0.367798
0.085000 51.443148 227.447065 -0.000000 0.156563 0.232353 -0.124339 -104.545687 127.138894 -0.000000 0.438075 0.415359 -0.367793
0.090000 51.749535 227.530748 -0.000000 0.156514 0.232360 -0.124386 -104.524292 126.994343 -0.000000 0.438078 0.415349 -0.367797
0.095000 52.032718 227.577356 -0.000000 0.156450 0.232392 -0.124420 -104.509125 126.848172 -0.000000 0.438101 0.415358 -0.367801
0.100000 52.237474 227.605654 -0.000000 0.156410 0.232379 -0.124448 -104.516140 126.703410 -0.000000 0.438102 0.415345 -0.367811
0.105000 52.393453 227.620291 -0.000000 0.156371 0.232386 -0.124485 -104.520383 126.592515 -0.000000 0.438101 0.415342 -0.367806
0.110000 52.460962 227.626977 -0.000000 0.156362 0.232394 -0.124492 -104.522534 126.517487 -0.000000 0.438113 0.415362 -0.367818
0.115000 52.427765 227.607753 -0.000000 0.156381 0.232404 -0.124463 -104.497724 126.491359 -0.000000 0.438119 0.415362 -0.367813
0.120000 52.266520 227.553835 -0.000000 0.156409 0.232393 -0.124426 -104.453928 126.495802 -0.000000 0.438128 0.415365 -0.367814
0.125000 52.005884 227.462853 -0.000000 0.156438 0.232382 -0.124383 -104.404888 126.511904 -0.000000 0.438125 0.415373 -0.367796
0.130000 51.684153 227.337097 -0.000000 0.156483 0.232373 -0.124333 -104.375211 126.522486 -0.000000 0.438115 0.415372 -0.367790
0.135000 51.335109 227.174896 -0.000000 0.156494 0.232371 -0.124329 -104.387034 126.519738 -0.000000 0.438099 0.415385 -0.367797
0.140000 50.942384 226.983751 -0.000000 0.156489 0.232350 -0.124341 -104.470386 126.484704 -0.000000 0.438082 0.415421 -0.367800
0.145000 50.553768 226.766065 -0.000000 0.156469 0.232335 -0.124380 -104.598681 126.435422 -0.000000 0.438062 0.415438 -0.367790
0.150000 50.160222 226.553770 -0.000000 0.156450 0.232312 -0.124432 -104.774538 126.360408 -0.000000 0.438030 0.415470 -0.367804
0.155000 49.835644 226.364858 -0.000000 0.156420 0.232285 -0.124504 -104.959196 126.280064 -0.000000 0.437998 0.415476 -0.367807
0.160000 49.583461 226.220603 -0.000000 0.156411 0.232265 -0.124547 -105.144537 126.188766 -0.000000 0.437969 0.415489 -0.367800
0.165000 49.416142 226.131152 -0.000000 0.156431 0.232246 -0.124534 -105.307223 126.096980 -0.000000 0.437945 0.415499 -0.367802
0.170000 49.336105 226.107455 -0.000000 0.156471 0.232231 -0.124495 -105.432406 126.014136 -0.000000 0.437917 0.415514 -0.367792
0.175000 49.351209 226.148240 -0.000000 0.156538 0.232218 -0.124425 -105.507463 125.953254 -0.000000 0.437911 0.415521 -0.367792
0.180000 49.452177 226.235407 -0.000000 0.156590 0.232219 -0.124365 -105.531816 125.920950 -0.000000 0.437894 0.415519 -0.367801
0.185000 49.617584 226.337995 -0.000000 0.156636 0.232237 -0.124321 -105.509410 125.919978 -0.000000 0.437907 0.415511 -0.367799
0.190000 49.793339 226.426748 -0.000000 0.156640 0.232253 -0.124318 -105.451086 125.945541 -0.000000 0.437912 0.415494 -0.367801
0.195000 49.933771 226.478144 -0.000000 0.156609 0.232278 -0.124346 -105.362940 126.000592 -0.000000 0.437914 0.415482 -0.367804
0.200000 50.024566 226.479684 -0.000000 0.156545 0.232304 -0.124399 -105.258667 126.088551 -0.000000 0.437929 0.415457 -0.367807
0.205000 50.042177 226.440895 -0.000000 0.156464 0.232317 -0.124474 -105.184981 126.181561 -0.000000 0.437939 0.415430 -0.367819
0.210000 50.047474 226.371158 -0.000000 0.156369 0.232361 -0.124543 -105.146209 126.268991 -0.000000 0.437964 0.415379 -0.367812
0.215000 49.984100 226.315103 -0.000000 0.156322 0.232375 -0.124551 -105.191565 126.285140 -0.000000 0.437988 0.415350 -0.367823
0.220000 49.951020 226.279822 -0.000000 0.156305 0.232445 -0.124540 -105.261749 126.251000 -0.000000 0.438013 0.415338 -0.367822
0.225000 49.983248 226.277937 -0.000000 0.156328 0.232480 -0.124483 -105.328255 126.170944 -0.000000 0.438046 0.415262 -0.367809
0.230000 50.072900 226.316664 -0.000000 0.156354 0.232506 -0.124417 -105.389445 126.045342 -0.000000 0.438086 0.415213 -0.367801
0.235000 50.223300 226.378463 -0.000000 0.156362 0.232549 -0.124357 -105.433252 125.904486 -0.000000 0.438108 0.415169 -0.367789
0.240000 50.392798 226.440880 -0.000000 0.156373 0.232622 -0.124334 -105.461140 125.775839 -0.000000 0.438136 0.415139 -0.367780
0.245000 50.530403 226.482906 -0.000000 0.156347 0.232669 -0.124322 -105.473182 125.680698 -0.000000 0.438163 0.415094 -0.367785
0.250000 50.584921 226.487809 -0.000000 0.156300 0.232700 -0.124347 -105.475450 125.627229 -0.000000 0.438182 0.415056 -0.367780
0.255000 50.531176 226.449833 -0.000000 0.156269 0.232737 -0.124383 -105.472227 125.621224 -0.000000 0.438183 0.415033 -0.367788
0.260000 50.436527 226.378317 -0.000000 0.156206 0.232744 -0.124429 -105.433013 125.689059 -0.000000 0.438201 0.414982 -0.367782
0.265000 50.334753 226.317560 -0.000000 0.156143 0.232769 -0.124456 -105.370244 125.810875 -0.000000 0.438206 0.414970 -0.367778
0.270000 50.311752 226.300896 -0.000000 0.156118 0.232802 -0.124481 -105.286693 125.972021 -0.000000 0.438210 0.414942 -0.367778
0.275000 50.364036 226.363203 -0.000000 0.156135 0.232812 -0.124504 -105.222541 126.126866 -0.000000 0.438147 0.414908 -0.367721
0.280000 50.544596 226.495194 -0.000000 0.156166 0.232819 -0.124467 -105.145766 126.291392 -0.000000 0.438144 0.414894 -0.367716
0.285000 50.802188 226.677126 -0.000000 0.156198 0.232839 -0.124431 -105.047770 126.467010 -0.000000 0.438137 0.414885 -0.367705
0.290000 51.080593 226.873256 -0.000000 0.156246 0.232830 -0.124387 -104.917657 126.663402 -0.000000 0.438192 0.414855 -0.367760
0.295000 51.303346 227.063203 -0.000000 0.156276 0.232862 -0.124350 -104.775836 126.868912 -0.000000 0.438183 0.414853 -0.367767
0.300000 51.452459 227.244938 -0.000000 0.156296 0.232860 -0.124348 -104.634116 127.081229 -0.000000 0.438172 0.414840 -0.367769
0.305000 51.557260 227.426499 -0.000000 0.156306 0.232872 -0.124328 -104.491750 127.309944 -0.000000 0.438178 0.414826 -0.367745
0.310000 51.595819 227.619186 -0.000000 0.156286 0.232866 -0.124352 -104.378303 127.538227 -0.000000 0.438169 0.414819 -0.367758
0.315000 51.587980 227.808360 -0.000000 0.156269 0.232883 -0.124379 -104.294473 127.763258 -0.000000 0.438152 0.414806 -0.367761
0.320000 51.534015 227.978109 -0.000000 0.156225 0.232879 -0.124417 -104.254413 127.959883 -0.000000 0.438153 0.414794 -0.367761
0.325000 51.441341 228.106452 -0.000000 0.156193 0.232902 -0.124472 -104.279865 128.090684 -0.000000 0.438150 0.414789 -0.367769
0.330000 51.320589 228.168431 -0.000000 0.156160 0.232906 -0.124503 -104.394345 128.114038 -0.000000 0.438152 0.414752 -0.367775
0.335000 51.174558 228.159203 -0.000000 0.156125 0.232926 -0.124506 -104.617008 127.996103 -0.000000 0.438169 0.414750 -0.367764
0.340000 51.026699 228.097665 -0.000000 0.156141 0.232932 -0.124476 -104.938605 127.739055 -0.000000 0.438192 0.414740 -0.367761
0.345000 50.945638 227.997137 -0.000000 0.156170 0.232950 -0.124417 -105.297310 127.400026 -0.000000 0.438224 0.414720 -0.367748
0.350000 50.911040 227.869101 -0.000000 0.156200 0.232966 -0.124374 -105.650468 127.026080 -0.000000 0.438262 0.414734 -0.367733
0.355000 50.942976 227.697473 -0.000000 0.156229 0.232988 -0.124315 -105.921413 126.696996 -0.000000 0.438286 0.414699 -0.367735
0.360000 50.970033 227.488266 -0.000000 0.156246 0.233002 -0.124294 -106.103316 126.437809 -0.000000 0.438323 0.414691 -0.367719
0.365000 50.985705 227.247491 -0.000000 0.156233 0.233003 -0.124309 -106.184961 126.269742 -0.000000 0.438350 0.414677 -0.367726
0.370000 50.991362 226.988526 -0.000000 0.156191 0.233017 -0.124353 -106.173202 126.184804 -0.000000 0.438369 0.414663 -0.367730
0.375000 50.930067 226.732321 -0.000000 0.156137 0.233010 -0.124423 -106.118216 126.136390 -0.000000 0.438359 0.414669 -0.367755
0.380000 50.836549 226.472566 -0.000000 0.156072 0.233011 -0.124493 -106.019556 126.129525 -0.000000 0.438371 0.414673 -0.367762
0.385000 50.664898 226.229150 -0.000000 0.156056 0.232989 -0.124527 -105.905872 126.148268 -0.000000 0.438384 0.414680 -0.367761
0.390000 50.472923 226.014189 -0.000000 0.156060 0.232990 -0.124538 -105.729098 126.238129 -0.000000 0.438382 0.414678 -0.367768
0.395000 50.234091 225.867614 -0.000000 0.156090 0.232969 -0.124498 -105.493283 126.399531 -0.000000 0.438374 0.414702 -0.367770
0.400000 50.001356 225.813165 -0.000000 0.156162 0.232959 -0.124432 -105.190104 126.642389 -0.000000 0.438377 0.414722 -0.367760
0.405000 49.780561 225.877465 -0.000000 0.156238 0.232946 -0.124374 -104.871791 126.922936 -0.000000 0.438364 0.414765 -0.367754
0.410000 49.641644 226.055006 -0.000000 0.156292 0.232919 -0.124314 -104.567548 127.212688 -0.000000 0.438354 0.414776 -0.367758
0.415000 49.585625 226.335129 -0.000000 0.156314 0.232898 -0.124309 -104.331732 127.457614 -0.000000 0.438322 0.414800 -0.367763
0.420000 49.652190 226.680791 -0.000000 0.156315 0.232894 -0.124322 -104.169819 127.639353 -0.000000 0.438307 0.414813 -0.367755
0.425000 49.783058 227.061124 -0.000000 0.156289 0.232869 -0.124378 -104.112374 127.718385 -0.000000 0.438282 0.414846 -0.367764
